<?xml version="1.0" encoding="utf-8"?>
<!-- Generator: Adobe Illustrator 27.4.0, SVG Export Plug-In . SVG Version: 6.00 Build 0)  -->
<svg version="1.1" id="Layer_1" xmlns="http://www.w3.org/2000/svg" xmlns:xlink="http://www.w3.org/1999/xlink" x="0px" y="0px"
	 viewBox="0 0 24 24" style="enable-background:new 0 0 24 24;" xml:space="preserve">
<style type="text/css">
	.st0{stroke:#000000;stroke-miterlimit:10;}
</style>
<path d="M-37.5-1.4v4h2v-3h1v3h1v-4H-37.5 M-32.5-1.4v5h2v-1h2v-4H-32.5 M-29.5-0.4v2h-1v-2H-29.5 M-27.5-1.4v4h2v-3h1v3h1v-3h1v3h1
	v-4H-27.5 M-38.5-2.4h18v6h-9v1h-4v-1h-5V-2.4z"/>
<g>
	<path class="st0" d="M4,7.9c1.3-5.4,3.6,6.9,5,8.1c1.2-0.5,3.5-15.7,3.8-9.8c0.3,9.1-4.2,18.3-7.4,3.1C4.7,6.4,3.4,18.9,2,17.9
		C0.9,16.6,3.6,9.4,4,7.9z"/>
	<path class="st0" d="M12.8,14.6c0.1-2.7,2.2-5.6,4.6-7.3l0,0c3.6-3.2,6.1,1.3,3.8,1.4c-3.3-4.5-13,13.4-0.6,5.9
		C24.5,16.1,12.4,21.1,12.8,14.6z"/>
</g>
</svg>
